# xmcd
#
# Track frame offsets:
# 150
# 16025
# 35842
# 50315
# 66260
# 81782
# 100820
# 115215
# 131735
# 146217
# 162675
# 178460
#
# Disc length: 2613 seconds
#
# Revision: 0
# Processed by: cddbd v1.5.1PL2 Copyright (c) Steve Scherf et al.
# Submitted via: Audion 3.0.2 (http://www.panic.com/audion/)
#
DISCID=b00a330c
DTITLE=Roxie Dean - Women Know Women
DYEAR=1900
DGENRE=
TTITLE0=Everyday Girl
TTITLE1=Perfume
TTITLE2=A Woman Might
TTITLE3=Surprise Me
TTITLE4=What I'm Sayin'
TTITLE5=Hush
TTITLE6=Do I Still do It For You
TTITLE7=What Keeps Me Going
TTITLE8=Women Know Women
TTITLE9=Sand Castles
TTITLE10=Wrong Side of Town
TTITLE11=Remind Me
EXTD=
EXTT0=
EXTT1=
EXTT2=
EXTT3=
EXTT4=
EXTT5=
EXTT6=
EXTT7=
EXTT8=
EXTT9=
EXTT10=
EXTT11=
PLAYORDER=
